<svg xmlns="http://www.w3.org/2000/svg" xmlns:xlink="http://www.w3.org/1999/xlink" viewBox="0 0 163.75 47.4"><defs><style>.cls-1{fill:#111;}.cls-2{fill:#0db551;}.cls-3{opacity:0.5;}.cls-4{fill:url(#linear-gradient);}.cls-5{fill:url(#linear-gradient-2);}</style><linearGradient id="linear-gradient" x1="17.11" y1="8.21" x2="13.07" y2="17.23" gradientUnits="userSpaceOnUse"><stop offset="0" stop-color="#043819" stop-opacity="0"/><stop offset="1" stop-color="#043819"/></linearGradient><linearGradient id="linear-gradient-2" x1="2670.46" y1="1258.37" x2="2666.41" y2="1267.39" gradientTransform="translate(2707.26 1297.56) rotate(180)" xlink:href="#linear-gradient"/></defs><title>logo-secondary</title><g id="Layer_2" data-name="Layer 2"><g id="Layer_1-2" data-name="Layer 1"><g id="logo-secondary"><path class="cls-1" d="M80.28,9H72.2a.13.13,0,0,0-.13.14V37.29a3.52,3.52,0,0,1-.83,2.64,3,3,0,0,1-2.14.77,11,11,0,0,1-1.6-.14.13.13,0,0,0-.16.13V47a.14.14,0,0,0,.12.14c.54.1,1.06.17,1.56.23s1.18.08,2,.08q4.66,0,7.06-2.28T80.42,38V9.14A.14.14,0,0,0,80.28,9Zm29.88,4.31a13.05,13.05,0,0,0-4.48-3.54,14.35,14.35,0,0,0-6.37-1.32A14,14,0,0,0,88.81,13a15.21,15.21,0,0,0-3,4.89,16.6,16.6,0,0,0-1.07,5.94v.11a15.94,15.94,0,0,0,1.15,6.18,14.33,14.33,0,0,0,3.22,4.8A14,14,0,0,0,94,38a16.56,16.56,0,0,0,6.12,1.1,15.71,15.71,0,0,0,7-1.45,14.94,14.94,0,0,0,5-3.93.15.15,0,0,0,0-.2l-4.59-4.06a.14.14,0,0,0-.18,0A12.75,12.75,0,0,1,104,31.69a9.45,9.45,0,0,1-3.74.71A7.5,7.5,0,0,1,95.54,31,7.09,7.09,0,0,1,93,26.63h20.49c0-.4.07-.78.09-1.15s0-.71,0-1a21.06,21.06,0,0,0-.85-6A14.77,14.77,0,0,0,110.16,13.31Zm-17.23,8.1a8.59,8.59,0,0,1,2.12-4.56,5.63,5.63,0,0,1,4.26-1.7,5.51,5.51,0,0,1,4.23,1.73,8.13,8.13,0,0,1,2,4.53Zm42.54-13a8.36,8.36,0,0,0-5.8,1.66,12.3,12.3,0,0,0-3.46,4.83V9.14a.14.14,0,0,0-.14-.14H118a.14.14,0,0,0-.14.14V38.31a.14.14,0,0,0,.14.13h8.07a.13.13,0,0,0,.14-.13V27.57q0-5.33,2.39-7.86a8.63,8.63,0,0,1,6.57-2.53h.44V8.59A.16.16,0,0,0,135.47,8.44ZM163,16a9.79,9.79,0,0,0-2.42-4,10.37,10.37,0,0,0-4-2.45,18,18,0,0,0-5.91-.85,26.58,26.58,0,0,0-6.37.66A33.29,33.29,0,0,0,139.31,11a.14.14,0,0,0-.07.17l2,6.12a.14.14,0,0,0,.18.08,30.07,30.07,0,0,1,3.74-1.13,19.82,19.82,0,0,1,4.25-.41,7.12,7.12,0,0,1,4.73,1.37,5,5,0,0,1,1.59,4v.5a23.85,23.85,0,0,0-3.27-.88,20.53,20.53,0,0,0-3.93-.33,18.41,18.41,0,0,0-4.8.58A10.93,10.93,0,0,0,140,22.79a8,8,0,0,0-2.44,2.91,9.16,9.16,0,0,0-.88,4.17V30a8.82,8.82,0,0,0,.8,3.88,8.41,8.41,0,0,0,2.16,2.83,9.34,9.34,0,0,0,3.22,1.73,13.2,13.2,0,0,0,3.93.57A12.24,12.24,0,0,0,152,38a11.87,11.87,0,0,0,3.68-2.72v3.05a.13.13,0,0,0,.13.13h7.8a.13.13,0,0,0,.14-.13v-17A17.56,17.56,0,0,0,163,16Zm-7.14,12.06a4.6,4.6,0,0,1-1.78,3.74,7.44,7.44,0,0,1-4.76,1.43,5.41,5.41,0,0,1-3.29-.94,3.07,3.07,0,0,1-1.27-2.64v-.11a3.45,3.45,0,0,1,1.54-3,7.52,7.52,0,0,1,4.23-1,13.28,13.28,0,0,1,2.89.3,12.7,12.7,0,0,1,2.44.8Z"/><path class="cls-2" d="M21.64,17.11h0A2.64,2.64,0,0,0,22,15.8a2.69,2.69,0,0,0-.29-1.2h0L13.28,0,.35,22.38h0A2.63,2.63,0,0,0,.35,25h0L12.49,46h0A2.63,2.63,0,0,0,14.8,47.4H31.52L17.84,23.7Zm31.89,5.22h0l-12.11-21A2.64,2.64,0,0,0,39.12,0H22.4L36.08,23.7l-3.76,6.52-.09.16a2.63,2.63,0,0,0,0,2.44l.09.15L40.64,47.4S53.55,25,53.57,25a2.61,2.61,0,0,0,0-2.68Z"/><g class="cls-3"><path class="cls-4" d="M13.28,0,8.76,7.82,17.84,23.7l3.8-6.59h0A2.64,2.64,0,0,0,22,15.8a2.69,2.69,0,0,0-.29-1.2h0Z"/><path class="cls-5" d="M40.64,47.4l4.52-7.83L36.08,23.7l-3.8,6.59h0a2.64,2.64,0,0,0-.35,1.31,2.69,2.69,0,0,0,.29,1.2h0Z"/></g></g></g></g></svg>