<?xml version="1.0" encoding="UTF-8"?>
<svg id="Camada_1" data-name="Camada 1" xmlns="http://www.w3.org/2000/svg" xmlns:xlink="http://www.w3.org/1999/xlink" viewBox="0 0 1920 1080">
  <defs>
    <style>
      .cls-1 {
        clip-path: url(#clippath);
      }

      .cls-2 {
        fill: none;
      }

      .cls-2, .cls-3, .cls-4 {
        stroke-width: 0px;
      }

      .cls-3 {
        fill: #410099;
      }

      .cls-4 {
        fill: #f18a00;
      }
    </style>
    <clipPath id="clippath">
      <rect class="cls-2" width="1920" height="1080"/>
    </clipPath>
  </defs>
  <g class="cls-1">
    <path class="cls-3" d="m666.41,396.19c-19.84,0-39.67,5.17-56.92,15.53-4.31,2.59-8.62,5.17-12.08,8.62v-61.24c0-3.45-3.45-6.9-6.9-6.9h-29.32c-3.45,0-6.9,3.45-6.9,6.9v150.07c0,31.05,11.21,57.79,33.64,80.21,22.42,22.42,49.16,33.64,80.21,33.64s57.79-11.21,80.21-33.64c22.42-22.43,33.64-49.16,33.64-80.21s-11.21-57.79-33.64-80.21c-24.15-21.56-50.89-32.78-81.94-32.78m0,182.85c-18.97,0-35.36-6.9-49.16-20.7-13.8-13.8-19.84-29.33-19.84-49.16s6.9-35.36,19.84-49.16c13.8-13.8,29.33-19.84,49.16-19.84s35.36,6.9,49.16,19.84c13.8,13.8,19.84,29.33,19.84,49.16s-6.9,35.36-19.84,49.16c-13.8,13.8-30.19,20.7-49.16,20.7"/>
    <path class="cls-4" d="m1413.33,397.05h-14.66c-31.05,0-57.79,11.21-80.21,33.64-22.42,22.42-33.64,49.16-33.64,80.21v166.46c0,3.45,3.45,6.9,6.9,6.9h29.32c3.45,0,6.9-3.45,6.9-6.9v-117.3h83.66c3.45,0,6.9-3.45,6.9-6.9v-29.33c0-3.45-3.45-6.9-6.9-6.9h-83.66v-5.18c0-18.97,6.9-35.36,19.84-49.16,13.8-13.8,29.33-20.7,49.16-20.7h5.17l8.62.86h.86c1.72,0,3.45-.86,4.31-1.72,1.72-1.72,2.59-3.45,2.59-5.17v-31.91c.86-3.45-1.73-6.9-5.18-6.9"/>
    <path class="cls-4" d="m1549.6,396.19c-31.05,0-58.65,11.21-80.21,33.64-22.42,22.43-33.64,49.16-33.64,80.21s11.21,57.79,33.64,80.21c22.43,22.42,49.16,33.64,80.21,33.64s57.79-11.21,80.21-33.64c22.42-22.42,33.64-49.16,33.64-80.21s-11.21-57.79-33.64-80.21c-21.56-22.42-49.16-33.64-80.21-33.64m0,182.85c-18.97,0-35.36-6.9-49.16-20.7-13.8-13.8-19.84-29.33-19.84-49.16s6.9-35.36,19.84-49.16c13.8-13.8,29.32-19.84,49.16-19.84s35.36,6.9,49.16,19.84c13.8,13.8,19.84,29.33,19.84,49.16s-6.9,35.36-19.84,49.16c-13.8,13.8-29.32,20.7-49.16,20.7"/>
    <path class="cls-4" d="m1810.94,401.36l-6.04-1.72c-8.62-2.59-17.25-3.45-25.88-3.45-27.6,0-50.89,9.49-69.86,29.33-18.97,18.97-29.32,43.12-29.32,69.86v113.85c0,3.45,3.45,6.9,6.9,6.9h29.32c3.45,0,6.9-3.45,6.9-6.9v-113.85c0-15.53,5.18-28.46,16.39-38.81,11.21-11.21,23.29-16.39,38.81-16.39,6.04,0,11.21.86,17.25,2.59l10.35,3.45h2.59c1.72,0,2.59-.86,4.31-1.72,1.72-1.72,2.59-3.45,2.59-6.04v-30.19c.86-3.45-.86-6.04-4.31-6.9"/>
    <path class="cls-3" d="m984.67,426.38c-21.56-19.84-47.44-30.19-76.76-30.19-31.05,0-58.65,11.21-80.21,33.64-22.42,22.42-33.64,49.16-33.64,80.21s11.21,57.79,33.64,80.21c22.42,22.42,49.16,33.64,80.21,33.64,24.15,0,46.58-6.9,65.55-21.56,12.94-9.49,24.15-21.56,31.91-35.36.86-.86.86-2.59.86-3.45,0-3.45-3.45-6.9-6.9-6.9h-37.95c-1.73,0-3.45.86-5.17,1.73-3.45,3.45-6.9,6.04-11.21,8.62-12.08,7.76-24.15,11.21-37.95,11.21-18.11,0-34.5-6.04-47.44-18.98-9.49-8.62-15.52-18.97-18.97-30.19h172.5c3.45,0,6.9-2.59,6.9-6.9v-13.8c0-3.45,0-6.9-.86-10.35-.86-27.6-12.94-51.75-34.5-71.59m-122.47,31.91c12.94-12.08,28.46-18.11,46.58-18.11s32.77,6.04,46.57,18.11c8.62,7.76,14.66,17.25,18.11,26.74h-130.24c3.45-9.49,9.49-18.97,18.97-26.74"/>
    <path class="cls-3" d="m1227.03,426.38c-21.56-19.84-47.44-30.19-76.76-30.19-31.05,0-58.65,11.21-80.21,33.64-22.43,22.42-33.64,49.16-33.64,80.21s11.21,57.79,33.64,80.21c22.42,22.42,49.16,33.64,80.21,33.64,24.15,0,46.58-6.9,65.55-21.56,12.94-9.49,24.15-21.56,31.91-35.36.86-.86.86-2.59.86-3.45,0-3.45-3.45-6.9-6.9-6.9h-37.95c-1.73,0-3.45.86-5.18,1.73-3.45,3.45-6.9,6.04-11.21,8.62-12.07,7.76-24.15,11.21-37.95,11.21-18.11,0-34.5-6.04-47.44-18.98-9.49-8.62-15.53-18.97-18.97-30.19h172.5c3.45,0,6.9-2.59,6.9-6.9v-13.8c0-3.45,0-6.9-.86-10.35-.86-27.6-12.94-51.75-34.5-71.59m-123.34,31.91c12.94-12.08,28.46-18.11,46.57-18.11s32.78,6.04,46.57,18.11c8.62,7.76,14.66,17.25,18.11,26.74h-130.24c4.31-9.49,10.35-18.97,18.97-26.74"/>
    <path class="cls-4" d="m160.98,525.56c-39.68,0-72.45-32.77-72.45-72.45s32.77-72.45,72.45-72.45,72.45,32.77,72.45,72.45-31.91,72.45-72.45,72.45m0-126.79c-29.32,0-53.47,24.15-53.47,53.47s24.15,53.47,53.47,53.47,53.47-24.15,53.47-53.47-24.15-53.47-53.47-53.47"/>
    <path class="cls-4" d="m188.58,604.05c-23.29,0-42.26-18.97-42.26-42.26s18.97-42.26,42.26-42.26,42.26,18.97,42.26,42.26-18.97,42.26-42.26,42.26m0-74.17c-17.25,0-31.05,13.8-31.05,31.05s13.8,31.05,31.05,31.05,31.05-13.8,31.05-31.05-13.8-31.05-31.05-31.05"/>
    <path class="cls-4" d="m355.05,449.66c0-39.67,32.77-72.45,72.45-72.45s72.45,32.78,72.45,72.45-32.77,72.45-72.45,72.45-72.45-32.78-72.45-72.45m18.98,0c0,29.33,24.15,53.47,53.48,53.47s53.47-24.15,53.47-53.47-24.15-53.47-53.47-53.47-53.48,24.15-53.48,53.47"/>
    <path class="cls-4" d="m357.63,558.34c0-23.29,18.97-42.26,42.26-42.26s42.26,18.98,42.26,42.26-18.98,43.12-42.26,43.12-42.26-18.98-42.26-43.12m11.21,0c0,17.25,13.8,31.05,31.05,31.05s31.05-12.94,31.05-31.05-13.8-31.05-31.05-31.05-31.05,13.8-31.05,31.05"/>
    <path class="cls-4" d="m218.77,422.93h0l-.86,132.82h.86c4.31,37.95,36.23,67.27,75.9,67.27s71.59-29.32,75.9-67.27v-132.82h-.86c-5.18-37.09-37.09-66.41-75.9-66.41s-70.72,29.33-75.04,66.41m133.69,138.86h-116.44v-20.7h116.44v20.7Zm0-38.81h-116.44v-20.7h116.44v20.7Zm0-38.81h-116.44v-20.7h116.44v20.7Z"/>
    <path class="cls-3" d="m370.57,430.69c0-42.26-34.5-75.9-75.9-75.9s-75.9,34.5-75.9,75.9h151.8Z"/>
  </g>
</svg>